<?xml version="1.0" standalone="no"?><!DOCTYPE svg PUBLIC "-//W3C//DTD SVG 1.1//EN" "http://www.w3.org/Graphics/SVG/1.1/DTD/svg11.dtd"><svg t="1513122244928" class="icon" style="" viewBox="0 0 1024 1024" version="1.1" xmlns="http://www.w3.org/2000/svg" p-id="7002" xmlns:xlink="http://www.w3.org/1999/xlink" width="200" height="200"><defs><style type="text/css"></style></defs><path d="M981.333333 685.269333V223.189333A180.48 180.48 0 0 0 800.853333 42.666667H223.146667A180.48 180.48 0 0 0 42.666667 223.146667v577.706666A180.48 180.48 0 0 0 223.146667 981.333333h577.706666a180.608 180.608 0 0 0 177.706667-148.650666c-47.829333-20.608-255.317333-110.122667-363.392-161.877334-82.346667 99.584-168.405333 159.36-298.24 159.36-129.92 0-216.533333-79.957333-205.994667-177.834666 6.826667-64.256 50.901333-169.258667 242.261334-151.168 100.821333 9.429333 146.986667 28.373333 229.290666 55.466666 21.162667-38.912 38.954667-81.92 52.309334-127.658666H270.165333v-36.138667h180.352V327.893333H230.4v-39.765333h220.16V194.517333s2.048-14.72 18.176-14.72h90.282667v108.330667h234.709333v39.765333h-234.709333v64.938667h191.317333a738.048 738.048 0 0 1-77.568 194.986667c55.466667 20.138667 308.565333 97.450667 308.565333 97.450666zM302.592 768.298667c-137.258667 0-158.848-86.613333-151.594667-122.794667 7.253333-36.181333 47.018667-83.029333 123.221334-83.029333 87.722667 0 166.144 22.4 260.309333 68.266666-66.048 86.229333-147.541333 137.557333-231.936 137.557334z" p-id="7003"></path></svg>